<svg width="25" height="25" viewBox="0 0 25 25" fill="none" xmlns="http://www.w3.org/2000/svg">
<path fill-rule="evenodd" clip-rule="evenodd" d="M3.27601 0.698747L0.872805 3.10195H2.8981C3.11018 3.10195 3.27604 2.92807 3.27604 2.72402L3.27601 0.698747ZM4.44596 20.4793C3.79567 20.4793 3.79567 19.4913 4.44596 19.4913H10.759C11.4093 19.4913 11.4093 20.4793 10.759 20.4793H4.44596ZM4.44596 13.7762C3.79567 13.7762 3.79567 12.7882 4.44596 12.7882H10.759C11.4093 12.7882 11.4093 13.7762 10.759 13.7762H4.44596ZM4.44596 10.4242C3.79567 10.4242 3.79567 9.4362 4.44596 9.4362H15.1955C15.8458 9.4362 15.8458 10.4242 15.1955 10.4242H4.44596ZM4.44596 7.07226C3.79567 7.07226 3.79567 6.08425 4.44596 6.08425H15.1955C15.8458 6.08425 15.8458 7.07226 15.1955 7.07226H4.44596ZM4.44596 17.1284C3.79567 17.1284 3.79567 16.1404 4.44596 16.1404H10.759C11.4093 16.1404 11.4093 17.1284 10.759 17.1284H4.44596ZM22.749 13.0817C19.6894 10.022 14.4367 12.2002 14.4367 16.5242C14.4367 20.8483 19.6884 23.0264 22.749 19.9667C24.6507 18.0661 24.6507 14.9835 22.749 13.0817ZM18.5104 10.7217C17.2108 10.8986 16.0479 11.5006 15.1644 12.3831C11.7329 15.8156 13.7502 21.6815 18.5104 22.3276C18.5104 22.8934 18.5858 23.3488 18.1807 23.7548L18.1797 23.7538C17.9757 23.9579 17.6953 24.0845 17.3877 24.0845H1.298C0.682884 24.0845 0.175293 23.582 0.175293 22.9618V4.08981H2.89915C3.64898 4.08981 4.2651 3.47569 4.2651 2.72386L4.26409 0H17.3878C18.0029 0 18.5105 0.502548 18.5105 1.12271L18.5104 10.7217ZM21.5047 14.14C21.9641 13.6807 22.6636 14.3792 22.2032 14.8386L18.1326 18.9092C17.9397 19.1022 17.6271 19.1022 17.4341 18.9092L15.9345 17.4096C15.4751 16.9502 16.1737 16.2507 16.633 16.711L17.7829 17.8609L21.5047 14.14Z" fill="#333333"/>
</svg>
