<svg width="24" height="25" viewBox="0 0 24 25" fill="none" xmlns="http://www.w3.org/2000/svg">
<path d="M0.200353 20.3106L1.2835 22.9197C1.5508 23.5536 2.05822 24.0558 2.69479 24.3167C3.33137 24.5775 4.04532 24.5756 4.68054 24.3115L8.68338 22.6226C8.84626 22.552 8.98348 22.433 9.07642 22.2818C9.16937 22.1305 9.21352 21.9543 9.2029 21.7771L9.47896 21.6602C9.81571 21.5154 10.186 21.467 10.5487 21.5203C12.6632 21.8366 16.2884 21.1042 18.1575 19.9847C19.9803 18.9007 21.7195 17.6819 23.3604 16.3384C24.988 14.9965 23.2128 12.6059 21.4913 13.7044C20.9775 14.0322 19.787 14.8891 19.1122 15.3645C18.9033 14.8124 18.3166 14.3619 17.7262 14.5076C17.5402 14.5517 17.3619 14.6092 17.1894 14.6648C16.4878 14.8891 15.7631 15.1211 14.1681 14.5115C11.1526 13.3574 8.15427 14.7952 7.92997 14.9064L6.6417 15.4508C6.52388 15.3153 6.3663 15.2205 6.19142 15.1799C6.01654 15.1393 5.8333 15.1549 5.66783 15.2246C5.01411 15.4949 3.14497 16.279 1.58831 16.9308C0.957504 17.1966 0.457499 17.7013 0.197456 18.3345C-0.0625868 18.9677 -0.0615453 19.6781 0.200353 20.3106ZM14.7237 17.6267C14.7286 17.5892 14.7408 17.5531 14.7597 17.5203C14.7785 17.4876 14.8037 17.4589 14.8336 17.4359C14.8636 17.4129 14.8978 17.396 14.9343 17.3862C14.9708 17.3764 15.0089 17.3739 15.0463 17.3788C15.6556 17.4588 16.8202 17.4603 17.3842 17.2095C17.7252 17.0523 18.3182 16.6693 18.5536 16.2569C18.5841 16.2023 18.6317 16.1591 18.689 16.134C18.7464 16.1088 18.8103 16.1031 18.8712 16.1176C18.915 16.127 18.9558 16.1466 18.9905 16.1749C19.0251 16.2032 19.0525 16.2394 19.0703 16.2804C19.0882 16.3214 19.0961 16.366 19.0932 16.4107C19.0904 16.4553 19.077 16.4986 19.0541 16.537C18.6433 17.26 17.6313 17.7294 17.6184 17.7352C16.9446 18.0419 15.6596 18.0348 14.9729 17.9491C14.9353 17.9444 14.8991 17.9323 14.8662 17.9135C14.8333 17.8947 14.8045 17.8696 14.7813 17.8397C14.7581 17.8097 14.7411 17.7755 14.7312 17.7389C14.7214 17.7024 14.7188 17.6642 14.7237 17.6267ZM5.88829 15.7556C5.92323 15.7408 5.96078 15.7332 5.99872 15.7331C6.03666 15.733 6.07423 15.7405 6.10923 15.7552C6.14423 15.7698 6.17596 15.7913 6.20254 15.8184C6.22912 15.8455 6.25003 15.8776 6.26404 15.9128L8.61245 21.7215C8.64087 21.791 8.6407 21.8688 8.61198 21.9381C8.58325 22.0074 8.52829 22.0626 8.45908 22.0915L7.63282 22.4404L5.00836 16.1218C5.3841 15.9665 5.69083 15.8381 5.88829 15.7556Z" fill="#333333"/>
<path d="M16.4091 0H15.4506C15.2982 0.000455129 15.1522 0.0611941 15.0444 0.168952C14.9367 0.276709 14.8759 0.422729 14.8755 0.57512V2.31965L13.0159 0.460096C12.7457 0.192102 12.3805 0.041733 11.9999 0.041733C11.6193 0.041733 11.2541 0.192102 10.9838 0.460096L5.85376 5.59017C5.68076 5.76356 5.57352 5.99178 5.55046 6.23563C5.5274 6.47948 5.58996 6.72375 5.72739 6.9265C5.86483 7.12925 6.06856 7.27782 6.30361 7.34671C6.53866 7.4156 6.79037 7.40051 7.0155 7.30403V11.6941C7.0155 12.0754 7.16698 12.4411 7.43662 12.7108C7.70626 12.9804 8.07197 13.1319 8.4533 13.1319H15.5465C15.9278 13.1319 16.2935 12.9804 16.5631 12.7108C16.8328 12.4411 16.9843 12.0754 16.9843 11.6941V7.30403C17.2094 7.40051 17.4611 7.4156 17.6961 7.34671C17.9312 7.27782 18.1349 7.12925 18.2724 6.9265C18.4098 6.72375 18.4723 6.47948 18.4493 6.23563C18.4262 5.99178 18.319 5.76356 18.146 5.59017L16.9843 4.42843V0.57512C16.9838 0.422729 16.9231 0.276709 16.8153 0.168952C16.7075 0.0611941 16.5615 0.000455129 16.4091 0ZM13.4377 12.5568H10.5621V10.2563C10.5621 10.1038 10.6227 9.9575 10.7305 9.84964C10.8384 9.74178 10.9847 9.68119 11.1372 9.68119H12.8626C13.0151 9.68119 13.1614 9.74178 13.2692 9.84964C13.3771 9.9575 13.4377 10.1038 13.4377 10.2563V12.5568ZM11.9999 7.38071C11.7155 7.38071 11.4375 7.29638 11.2011 7.1384C10.9646 6.98041 10.7803 6.75585 10.6715 6.49313C10.5627 6.23041 10.5342 5.94131 10.5897 5.66241C10.6452 5.3835 10.7821 5.12731 10.9832 4.92623C11.1843 4.72515 11.4405 4.58821 11.7194 4.53274C11.9983 4.47726 12.2874 4.50573 12.5501 4.61455C12.8128 4.72338 13.0374 4.90766 13.1954 5.14411C13.3534 5.38055 13.4377 5.65854 13.4377 5.94291C13.4377 6.32424 13.2862 6.68995 13.0166 6.95959C12.7469 7.22923 12.3812 7.38071 11.9999 7.38071ZM17.7396 5.99659C17.8289 6.08692 17.879 6.20885 17.879 6.33591C17.879 6.46296 17.8289 6.58489 17.7396 6.67523C17.6479 6.76203 17.5265 6.81041 17.4003 6.81041C17.274 6.81041 17.1526 6.76203 17.0609 6.67523L12.4063 2.02059C12.2985 1.91289 12.1523 1.85239 11.9999 1.85239C11.8475 1.85239 11.7013 1.91289 11.5935 2.02059L6.93882 6.67523C6.84882 6.76522 6.72677 6.81578 6.5995 6.81578C6.47223 6.81578 6.35017 6.76522 6.26018 6.67523C6.17018 6.58523 6.11963 6.46318 6.11963 6.33591C6.11963 6.20864 6.17018 6.08658 6.26018 5.99659L11.3902 0.866514C11.5527 0.706217 11.7717 0.616338 11.9999 0.616338C12.2281 0.616338 12.4471 0.706217 12.6095 0.866514L17.7396 5.99659Z" fill="#333333"/>
</svg>
