<svg width="24" height="18" viewBox="0 0 24 18" fill="none" xmlns="http://www.w3.org/2000/svg">
<path d="M3.37714 1.71439L1.57714 0.205814C1.89011 0.0671179 2.22912 -0.00302276 2.57143 9.98646e-05H21.4286C21.7709 -0.00302276 22.1099 0.0671179 22.4229 0.205814L20.6229 1.71439L12.3686 8.6401C12.322 8.69743 12.2631 8.74364 12.1964 8.77538C12.1297 8.80712 12.0567 8.82359 11.9829 8.82359C11.909 8.82359 11.836 8.80712 11.7693 8.77538C11.7026 8.74364 11.6438 8.69743 11.5971 8.6401L3.37714 1.71439ZM23.6914 1.3801L22.2857 2.57153L13.5 9.92581C13.0989 10.3119 12.5652 10.5297 12.0086 10.5344C11.4326 10.5254 10.8814 10.2988 10.4657 9.9001L1.71429 2.57153L0.308571 1.3801C0.110789 1.74641 0.00489922 2.15526 0 2.57153V14.5715C0 15.2535 0.270918 15.9076 0.753154 16.3898C1.23539 16.872 1.88944 17.143 2.57143 17.143H21.4286C22.1106 17.143 22.7646 16.872 23.2468 16.3898C23.7291 15.9076 24 15.2535 24 14.5715V2.57153C23.9976 2.15494 23.8915 1.7455 23.6914 1.3801Z" fill="#333333"/>
</svg>
