<svg width="18" height="18" viewBox="0 0 18 18" fill="none" xmlns="http://www.w3.org/2000/svg">
<g clip-path="url(#clip0_209_55)">
<path d="M1.49996 -0.113281H6.6137C7.55546 -0.113281 8.31825 0.828479 8.31825 1.59126V5.34137C8.31825 6.28313 7.55546 7.04592 6.6137 7.04592H1.49996C0.558196 7.04592 -0.20459 6.10416 -0.20459 5.34137V1.59126C-0.20459 0.649504 0.558196 -0.113281 1.49996 -0.113281Z" fill="#333333"/>
<path d="M11.3864 11.1367H16.5002C17.4419 11.1367 18.2047 12.0785 18.2047 12.8413V16.5914C18.2047 17.5331 17.4419 18.2959 16.5002 18.2959H11.3864C10.4447 18.2959 9.68188 17.3542 9.68188 16.5914V12.8413C9.68188 11.8995 10.4447 11.1367 11.3864 11.1367Z" fill="#333333"/>
<path d="M11.3864 -0.113281H16.5002C17.4419 -0.113281 18.2047 0.828479 18.2047 1.59126V8.06865C18.2047 9.01041 17.4419 9.77319 16.5002 9.77319H11.3864C10.4447 9.77319 9.68188 8.83143 9.68188 8.06865V1.59126C9.68188 0.649504 10.4447 -0.113281 11.3864 -0.113281Z" fill="#333333"/>
<path d="M1.49996 8.40918H6.6137C7.55546 8.40918 8.31825 9.35094 8.31825 10.1137V16.5911C8.31825 17.5329 7.55546 18.2957 6.6137 18.2957H1.49996C0.558196 18.2957 -0.20459 17.3539 -0.20459 16.5911V10.1137C-0.20459 9.17197 0.558196 8.40918 1.49996 8.40918Z" fill="#333333"/>
</g>
<defs>
<clipPath id="clip0_209_55">
<rect width="18" height="18" fill="white"/>
</clipPath>
</defs>
</svg>
