<svg width="24" height="27" viewBox="0 0 24 27" fill="none" xmlns="http://www.w3.org/2000/svg">
<path d="M12.0001 0C10.1474 0 8.36992 0.735737 7.05898 2.04654C5.74805 3.35735 5.01244 5.13485 5.01244 6.98769C5.01244 8.84053 5.74945 10.6179 7.05898 11.9288C8.36979 13.2396 10.1473 13.9767 12.0001 13.9767C13.8541 13.9767 15.6316 13.2396 16.9426 11.9288C18.2535 10.618 18.9891 8.84053 18.9891 6.98769C18.9891 5.13485 18.2534 3.35748 16.9426 2.04654C15.6318 0.735607 13.8543 0 12.0001 0ZM7.8114 13.9764C3.2414 15.6697 0.00127511 20.0561 0.00127511 25.228L0 26.1142H24V25.228C24 20.0652 20.7714 15.6852 16.2153 13.9855C14.9224 14.6893 13.4726 15.0592 11.9998 15.0604C10.5347 15.0528 9.09642 14.6804 7.81111 13.9766L7.8114 13.9764Z" fill="#333333"/>
</svg>
